<svg xmlns="http://www.w3.org/2000/svg" viewBox="0 0 951 495"><path fill="#111" fill-rule="evenodd" d="M628 488c-1-1-4-2-7-2c-3 0-5-1-6-2c-1 0-3-1-5-1c-1 0-3-1-4-1c-1-1-2-2-3-2c-1 0-2-1-3-2c-1 0-2-1-3-1c-1 0-3-1-5-3c-1-2-3-3-4-3c-2 0-6-4-6-6c0-1 1-3 3-4c1-1 3-4 4-5c2-5 9-12 11-12c1 0 3 1 4 3c2 2 4 3 4 3c1 0 3 1 5 3c2 2 5 3 6 3c1 0 2 1 4 1c2 3 30 3 32 1c1-1 2-2 2-2c2 0 7-5 11-9c3-5 4-7 4-12c1-8 2-13 2-15c1-4-3-4-6 0c-2 2-4 3-5 3c-1 0-2 1-3 1c-1 1-2 2-4 2c-1 0-2 1-3 2c-1 1-4 1-15 1c-10 0-13 0-14-1c-1-1-3-2-4-2c-2 0-4-1-5-2c-1 0-2-1-3-1c-1 0-3-2-6-5c-3-2-6-4-6-4c-1 0-12-15-12-16c0-1-1-2-2-2c0-1-1-2-1-4c0-1-1-3-1-4c-1-1-2-3-2-5c0-3-1-7-2-9c0-2-1-6-1-8c0-2 1-6 1-8c1-2 2-5 2-8c0-3 0-5 2-5c0-1 1-2 1-4c0-2 0-3 1-3c0-1 2-3 3-5c3-7 20-24 24-24c1 0 2-1 3-1c1-1 3-2 4-2c2 0 4-1 5-2c1-1 4-1 13-1c10 0 13 0 14 1c1 1 2 2 4 2c1 0 4 1 6 3c2 2 4 3 5 3c0 0 2 1 3 3c4 5 5 4 5-3l1-6 13 0c9 0 13 0 14 1c0 1 0 30 0 70c0 63-1 69-2 71c-1 2-2 4-2 5c0 1-1 2-1 3c-1 1-2 2-2 3c0 2-19 21-21 21c-1 0-2 1-3 2c-1 0-2 1-4 1c-2 0-3 1-4 1c-1 1-3 2-6 2c-3 0-7 1-8 2c-3 1-19 2-22 0zM754 487c-2 0-4-1-6-1c-1 0-3-1-4-2c-1 0-2-1-3-1c-1 0-2-1-3-1c-1-1-2-2-3-2c-2 0-6-3-6-5c0 0 1-1 1-1c1-1 2-2 2-2c0-1 2-5 4-8c3-4 5-8 5-9c1-3 4-2 8 1c3 3 3 3 11 3c6 0 10 0 11-1c3-3 9-13 9-15c0-2 1-3 2-4c0-1 1-2 1-3c0-1 1-3 2-4c1-2 1-2 0-4c-1-1-2-2-2-3c0-1-1-2-1-3c-1-1-2-2-2-3c0-1-1-2-2-3c0-2-1-3-1-4c0-1-1-2-1-3c-1-1-2-2-2-4c0-1-1-2-2-3c0 0-1-1-1-2c0-2-1-3-1-4c-1-1-2-2-2-3c0-1-1-2-2-3c0-1-1-2-1-3c0-1-1-2-1-3c-1-1-2-2-2-3c0-1-1-2-2-3c0-1-1-2-1-3c0-1-1-2-1-3c-1-1-2-2-2-4c0-1-1-2-2-3c0-1-1-2-1-2c0-1-1-4-3-7c-2-4-3-7-3-8c0 0-1-1-1-2c-1-1-2-2-2-4c0-1-1-2-2-3c0 0-1-1-1-2c0-2-1-3-1-4c-1-1-2-2-2-3c0-1-1-2-2-3c0-1-1-2-1-3c0-1-1-2-1-3c-1-1-2-2-2-3c0-1-1-2-2-3c0-1-1-2-1-3c0-1-1-2-1-3c-1 0-2-1-2-2c0-1 3-1 16-1c15 0 17 0 18 2c1 1 2 2 2 3c0 1 1 2 2 3c0 1 1 2 1 3c0 2 1 3 1 4c1 1 2 2 2 3c0 1 1 2 2 3c0 1 1 2 1 3c0 1 1 2 1 3c1 1 2 2 2 3c0 2 1 3 2 4c0 1 1 2 1 3c0 1 1 2 1 4c1 1 2 2 2 3c0 1 1 2 2 3c0 1 1 2 1 3c0 2 1 3 1 4c1 1 2 2 2 3c0 1 1 2 2 3c0 1 1 2 1 3c0 1 1 2 1 3c1 1 2 2 2 4c0 1 1 2 2 3c0 1 1 2 1 3c0 1 1 2 2 3c0 2 1 3 1 5c0 1 1 2 2 2c2 0 4-2 4-6c0-1 1-3 2-4c0-1 1-2 1-4c0-1 1-3 2-4c0-2 1-4 1-5c0-2 1-3 2-4c0-1 1-2 1-4c0-2 1-3 1-4c1-1 2-3 2-5c0-2 1-3 2-4c0 0 1-1 1-3c0-1 1-3 1-5c1-1 2-3 2-4c0-2 1-3 2-4c0-1 1-2 1-4c0-2 1-3 1-4c1-1 2-3 2-4c0-2 1-4 2-5c0-1 1-2 1-4c0-5 2-5 18-5l15 0 0 3c0 2-1 3-1 4c-1 1-2 2-2 4c0 2-1 3-1 4c-1 1-2 2-2 3c0 2-1 3-2 4c0 1-1 2-1 4c0 2-1 3-1 4c-1 1-2 2-2 3c0 2-1 3-2 4c0 2-1 3-1 5c0 1-1 2-1 3c-1 1-2 2-2 3c0 2-1 3-2 4c0 2-1 3-1 5c0 1-1 2-1 3c-1 1-2 2-2 4c0 1-1 2-2 3c0 1-1 2-1 4c0 2-1 3-1 4c-1 1-2 2-2 3c0 2-1 3-2 4c0 2-1 3-1 5c0 1-1 2-1 3c-1 1-2 2-2 3c0 2-1 3-1 5c-1 1-2 2-2 4c0 1-1 2-1 3c-1 1-2 2-2 4c0 2-1 3-2 4c0 1-1 2-1 3c0 2-1 3-1 4c-1 1-2 2-2 4c0 2-1 3-2 4c0 1-1 2-1 4c0 1-1 2-1 3c-1 1-2 2-2 4c0 2-1 3-2 4c0 1-1 2-1 4c0 2-1 3-1 3c-1 1-2 2-2 3c0 1-1 2-2 3c0 1-1 2-1 3c0 2-16 18-18 18c-1 0-2 1-3 1c0 1-2 2-4 2c-2 0-4 1-5 2c-3 2-15 1-17-1zM270 428c-1-1-3-2-4-2c-2 0-4-1-5-2c-1 0-2-1-3-1c-1 0-2-1-3-1c-1-1-2-2-3-2c-2 0-21-19-21-21c0-1-1-2-1-3c-1-1-2-2-2-3c0-1-1-2-2-3c0-1-1-3-1-4c0-2-1-4-1-6c-3-2-3-25-1-28c1-1 2-3 2-5c0-2 1-4 2-5c0-1 1-2 1-3c0-1 1-2 2-3c0-1 1-2 1-3c0-2 19-21 21-21c1 0 2-1 3-2c1 0 2-1 3-1c1 0 2-1 3-1c1-1 3-2 5-2c2 0 4-1 5-2c2-2 28-2 31 0c1 1 3 2 5 2c3 0 4 1 5 2c0 0 1 1 2 1c2 0 3 1 4 1c1 1 2 2 3 2c0 0 4 3 8 7c8 7 16 18 16 21c0 1 1 2 1 3c1 1 2 3 2 5c0 2 1 5 2 6c2 4 2 22 0 25c-1 1-2 3-2 5c0 2-1 4-2 5c0 1-1 2-1 3c0 2-1 3-1 4c-1 1-2 2-2 3c0 2-19 21-21 21c-1 0-2 1-3 2c-1 0-2 1-3 1c-1 0-2 1-3 1c-1 1-3 2-4 2c-2 0-4 1-5 2c-1 1-4 1-17 1c-12 0-15 0-16-1zM481 428c-1-1-3-2-5-2c-3 0-4-1-5-2c0 0-1-1-2-1c-2 0-3-1-4-1c-1-1-2-2-3-2c-1 0-18-16-18-17c0-1-1-3-3-5c-2-3-3-6-3-7c0-1-1-2-2-3c0-1-1-3-1-5c0-3-1-5-1-7c-3-2-3-17-1-20c1-1 2-4 2-6c0-3 0-5 1-5c1-1 2-2 2-4c0-1 1-4 3-6c2-2 3-4 3-5c0-4 21-21 25-21c1 0 2-1 3-1c1-1 3-2 4-2c2 0 4-1 6-1c2-3 28-3 30-1c1 1 3 2 5 2c2 0 4 1 5 2c1 0 2 1 3 1c1 0 2 1 3 1c1 1 2 2 3 2c2 0 21 19 21 21c0 1 1 2 2 3c0 1 1 2 1 3c0 1 1 2 1 3c1 1 2 2 2 4c0 1 1 3 2 4c2 3 2 30 0 32c-1 1-2 3-2 5c0 2-1 3-2 3c0 1-1 2-1 3c0 2-1 3-1 3c-1 1-2 2-2 3c0 3-18 21-21 21c-1 0-2 1-3 2c0 0-1 1-2 1c-2 0-3 1-4 1c-1 1-2 2-4 2c-1 0-3 1-4 2c-3 2-31 2-33 0zM18 425c0-1 0-41 0-89l0-86 37-1c32 0 37 0 39 1c1 1 4 2 6 2c1 0 3 1 4 2c1 0 2 1 3 1c2 0 19 16 19 18c0 1 1 2 1 3c1 1 2 2 2 3c0 2 1 3 2 4c2 3 2 24 0 27c-1 1-2 2-2 4c0 3-7 12-11 15c-3 2-3 3-1 4c1 0 2 1 3 2c0 1 1 1 2 1c3 0 16 16 16 21c0 1 1 2 2 3c2 2 2 25-1 27c0 2-1 4-1 5c0 2-1 3-2 4c0 1-1 2-1 3c0 2-16 18-18 18c-1 0-2 1-3 1c0 1-1 2-2 2c-2 0-3 1-4 2c-1 0-3 1-4 1c-2 0-4 1-5 2c-2 1-9 1-41 1c-30 0-39 0-40-1zM165 425c0-1 0-28 0-60l1-59 14 0l14 0 0 60l0 60-14 0c-11 0-14 0-15-1zM375 425c0-1 0-44 0-96l1-95 14 0l14 0 0 96l0 96-14 0c-11 0-14 0-15-1zM295 400c1 0 2-1 4-1c5 0 19-15 19-21c0-2 1-4 2-5c1-3 1-11 0-14c-1-1-2-3-2-5c0-1-1-3-2-4c0-1-1-2-1-2c0-2-9-11-13-13c-1-1-4-2-5-2c-2 0-3-1-4-1c-1-1-3-2-7-2c-3 0-5 1-6 2c-1 0-3 1-4 1c-6 0-21 15-21 21c0 2-1 3-1 3c-2 1-2 3-2 9c0 6 0 8 2 9c0 1 1 3 1 5c0 3 1 4 8 11c6 6 8 8 11 8c1 0 3 1 4 1c1 2 3 2 8 2c6 0 8 0 9-2zM505 400c2 0 3-1 4-1c3 0 12-7 16-12c1-3 3-6 3-7c0-1 1-2 1-4c3-2 3-18 1-20c-1-1-2-3-2-4c0-3-2-5-8-11c-7-7-9-8-11-8c-2 0-4-1-6-1c-2-2-10-2-13-1c-1 1-3 2-4 2c-2 0-3 1-4 1c-1 1-2 2-2 2c-2 0-12 10-12 12c0 1-1 2-2 3c0 1-1 3-1 4c0 2-1 5-2 8c-1 3-1 4 0 7c1 2 2 5 2 7c0 2 1 4 1 4c1 1 2 2 2 3c0 3 14 15 17 15c2 0 3 1 4 1c2 3 14 3 16 0zM652 400c1 0 2-1 4-1c2 0 13-7 13-9c0-1 1-3 3-4c2-4 2-4 2-20l0-16-3-5c-5-6-12-12-16-12c-1 0-3-1-4-2c-3-2-12-1-14 1c-1 0-3 1-5 1c-2 0-4 1-10 7c-4 3-7 7-7 8c0 1-1 2-2 3c-2 3-2 27 0 30c1 1 2 2 2 3c0 1 3 4 7 8c5 5 7 7 9 7c2 0 3 1 4 1c1 2 3 2 9 2c5 0 7 0 8-2zM88 397c1-1 3-1 5-1c3 0 5-1 9-5c3-3 6-6 6-6c0-1 1-2 2-3c2-2 2-14 0-16c-1-1-2-2-2-3c0-2-7-9-9-9c-1 0-2-1-3-2c-1-1-5-1-24-1l-24 1 0 22c0 17 0 22 1 23c1 1 6 1 20 1c9 0 18-1 19-1zM87 320c1-1 2-2 3-2c2 0 9-7 9-9c0 0 1-1 1-2c2-1 2-3 2-7c0-5 0-7-2-8c0-1-1-2-1-3c0-3-4-7-6-7c-1 0-2-1-3-2c0 0-1-1-3-1c-1 0-4-1-5-2c-2-1-5-1-18-1l-16 0 0 21c0 12 0 22 0 23c1 2 37 2 39 0zM178 286c-1-1-3-1-4-1c-2 0-3-1-4-1c-1-1-2-2-3-2c0 0-1-1-2-2c0-1-1-2-2-3c-1-1-1-4-1-11c0-8 0-8 3-13c3-2 5-4 6-4c2 0 3-1 4-1c1-1 3-2 6-2c3 0 5 1 6 2c1 0 2 1 2 1c2 0 9 7 9 9c0 0 1 1 2 2c0 1 1 3 1 6c0 4-1 6-1 7c-1 1-2 2-2 3c0 3-7 9-11 9c-2 1-4 1-5 1c-2 1-3 1-4 0zM94 191c-2-1-7-1-11-2c-4 0-7-1-8-2c-1 0-3-1-5-1c-1 0-3-1-4-2c-1 0-2-1-4-1c-1 0-2-1-3-1c-1-1-2-2-3-2c-1 0-2-1-2-2c-1 0-2-1-3-1c0 0-3-1-5-3c-2-2-4-3-5-3c-1 0-14-13-14-14c0-1-1-3-3-5c-1-2-3-4-3-5c-1-1-2-3-3-5c-2-3-3-6-3-7c0-1-1-2-2-3c0 0-1-2-1-4c0-2-1-4-1-5c-4-3-4-46 0-49c0-1 1-3 1-4c0-2 1-4 2-5c0-2 1-3 1-5c0-1 1-2 2-3c0-1 1-2 1-3c0-1 1-3 3-5c2-1 3-3 3-4c0-2 22-24 24-24c1 0 2-1 3-1c1-1 2-2 3-2c1 0 2-1 3-1c1-1 2-2 3-2c1 0 2-1 3-2c1 0 3-1 5-1c1 0 3-1 4-2c1 0 3-1 6-1c3 0 6-1 8-1c5-3 23-3 27 0c1 0 5 1 7 1c3 0 6 1 7 2c2 0 4 1 5 1c2 0 3 1 4 2c1 0 3 1 4 1c2 0 3 1 4 1c0 1 1 2 2 2c0 0 3 1 6 3c2 2 6 5 8 7c3 1 5 3 5 5c0 1-3 5-10 11l-10 10-4-4c-2-3-5-5-6-5c-1 0-2-1-3-1c-1-1-2-2-3-2c-1 0-2-1-3-1c0-1-1-2-3-2c-2 0-3-1-3-1c-1-2-13-3-20-3c-10 0-18 1-19 3c0 0-1 1-3 1c-2 0-3 1-4 2c-1 0-2 1-3 1c0 0-1 1-2 1c-1 1-2 2-3 2c-2 0-18 16-18 18c0 1-1 2-2 3c0 1-1 2-1 3c0 1-1 2-1 3c-1 1-2 2-2 4c0 2-1 3-2 4c-2 2-2 35 0 37c1 1 2 2 2 4c0 2 1 3 2 4c0 1 1 2 1 3c0 1 1 3 2 4c1 1 4 5 5 8c3 3 6 6 11 10c4 2 7 5 8 5c0 1 1 1 2 1c1 0 2 1 3 2c1 0 3 1 5 1c2 0 3 1 3 1c1 2 4 2 19 2c15 0 18 0 19-2c1 0 3-1 5-1c3 0 4-1 5-1c0-1 1-2 1-2c1 0 2-1 3-2c2-1 2-4 2-19c0-12 0-17-1-18c-1 0-10 0-19 0c-16 0-19 0-20-2c-2-1-2-3-2-13c0-9 0-13 1-14c2-2 68-2 70 0c1 1 1 11 1 40l0 39-5 5c-3 3-6 5-7 5c-1 0-2 1-3 1c-1 1-2 2-3 2c-1 0-2 1-3 2c-1 0-2 1-3 1c-2 0-3 1-5 1c-1 1-3 2-5 2c-1 0-3 1-4 2c-1 1-3 1-8 1c-3 0-7 0-8 1c-3 1-15 2-20 1zM246 191c-2-1-6-2-9-2c-2 0-4-1-5-1c-1-1-2-2-4-2c-1 0-2-1-3-2c-1 0-2-1-3-1c-1 0-2-1-3-1c-1-1-2-2-3-2c-1 0-15-13-15-15c0-1-1-3-3-5c-2-2-3-5-3-6c0-1-1-2-1-3c-1-1-2-3-2-5c0-2-1-4-2-5c-1-1-1-4-1-14c0-10 0-13 1-14c1-1 2-3 2-5c0-2 1-4 2-5c0-1 1-2 1-4c0-1 0-2 1-2c1-1 2-3 3-5c1-3 18-20 20-20c1 0 2-1 3-2c1 0 2-1 4-1c2 0 3-1 4-1c1-1 3-2 5-2c3 0 7-1 10-1c4-2 6-2 9 0c2 0 7 1 10 1c4 0 5 0 6 1c0 1 1 2 3 2c2 0 3 1 3 2c1 0 2 1 3 1c1 0 2 1 3 2c1 0 2 1 2 1c2 0 13 10 13 11c0 1 1 3 3 5c2 2 3 4 3 5c0 1 1 2 1 3c1 1 2 2 2 4c0 1 1 3 1 4c1 1 2 5 2 16l1 15-45 0c-25 0-45 0-45 1c0 4 13 20 17 20c1 0 2 1 3 2c3 2 28 2 31 0c1-1 3-2 4-2c1 0 4-1 5-3c4-4 7-4 11 1c2 2 3 4 3 5c0 0 2 2 4 5c1 2 3 5 3 6c0 1-6 7-8 7c0 0-1 1-2 2c-1 0-2 1-3 1c-1 0-2 1-3 1c-1 1-2 2-4 2c-2 0-3 1-4 2c-1 0-3 1-6 1c-3 0-6 0-7 1c-3 2-13 2-18 1zM524 190c-3 0-7-1-9-1c-3 0-5-1-6-1c-1-1-2-2-4-2c-1 0-2 0-2-1c-1 0-3-2-5-3c-6-2-20-16-23-22c-1-3-3-5-3-5c-1-1-1-3-1-4c0-2-1-3-1-4c-2-1-3-12-3-19c0-8 1-19 3-20c0-1 1-2 1-3c0-2 1-4 3-7c1-2 2-4 3-6c1-3 18-18 21-19c2-1 4-2 4-3c1-1 2-1 4-1c1 0 3-1 4-1c1-1 3-2 6-2c3 0 8-1 10-2c4-1 5-1 9 0c3 1 8 2 11 2c4 0 5 0 6 2c0 0 1 1 3 1c2 0 3 1 4 1c1 1 2 2 3 2c1 0 2 1 2 2c1 0 2 1 3 1c2 0 18 16 18 18c0 1 1 2 1 3c1 1 2 2 2 3c0 1 1 2 2 3c0 0 1 1 1 3c0 1 1 3 2 4c2 4 2 34 0 37c-1 1-2 3-2 4c0 2-1 3-1 4c-1 1-2 2-2 2c0 1-1 2-2 3c0 1-1 2-1 3c0 2-16 18-18 18c-1 0-2 1-3 1c-1 2-6 5-9 5c-1 0-2 1-3 2c-1 0-3 1-5 1c-3 0-6 1-9 1c-2 1-5 2-7 2c-2 0-5-1-7-2zM882 191c-2-1-6-1-9-2c-3 0-6-1-6-2c-1 0-3-1-5-1c-2 0-3-1-4-2c0 0-1-1-2-1c-4 0-20-16-25-25c-1-3-3-6-3-7c0-1-1-3-2-4c-1-2-1-5-1-20c0-15 0-18 1-20c1-1 2-3 2-4c0-2 1-3 2-4c0-1 1-2 1-3c0-1 1-3 3-5c2-1 3-3 3-4c0-2 9-11 12-12c4-2 7-4 8-5c1 0 2-1 4-1c1 0 2-1 3-1c1-1 3-2 6-2c3 0 8-1 10-1c3-2 5-2 9 0c2 0 7 1 9 1c3 0 5 1 6 2c1 0 2 1 4 1c2 0 3 1 4 1c1 1 2 2 3 2c2 0 21 19 21 21c0 1 1 2 2 3c0 1 1 2 1 3c0 2 1 3 1 4c1 1 2 3 2 5c0 2 1 4 2 5c1 1 1 3 1 13l-1 12-44 0c-44 0-45 1-45 3c0 1 1 2 1 3c1 1 2 2 2 3c0 2 5 7 9 9c1 1 4 3 6 4c4 2 6 2 18 2c11 0 14 0 15-1c0-1 2-2 3-2c1 0 2-1 3-1c1-1 2-2 3-2c1 0 2-1 3-2c1 0 2-1 3-1c2 0 6 4 6 6c0 1 1 3 3 5c2 1 3 3 3 4c0 1 1 2 2 3c2 1 1 4-2 6c-1 0-3 1-3 2c-1 0-2 1-3 1c-1 0-2 1-3 2c0 0-1 1-2 1c-1 0-2 1-3 1c-1 1-2 2-4 2c-2 0-3 1-3 2c-1 1-2 1-5 1c-3 0-7 1-11 1c-6 2-9 2-14 1zM336 187c-1-3-1-116 0-119c1-1 2-2 3-1c1 0 6 0 12 0c12 0 12 0 12 9c0 6 1 7 6 1c2-3 5-5 5-5c1 0 2-1 3-2c1 0 2-1 3-1c1 0 2-1 3-1c1-1 3-2 5-2c2 0 5-1 8-2c4-1 4-1 8 0c2 1 5 2 7 2c3 0 5 1 6 1c1 1 2 2 3 2c4 0 18 14 18 18c0 1 1 2 2 3c0 1 1 3 1 4c0 2 1 4 1 6c2 1 2 8 2 44c0 38 0 42-2 43c-1 2-4 2-14 2l-14-1 0-39c0-29-1-39-2-40c0-1-1-2-1-3c0-3-7-10-9-10c-1 0-2-1-3-2c0-1-2-1-9-1l-10 0-6 6c-4 3-8 7-8 8c-1 1-1 16-1 40c0 36 0 39-2 40c-1 1-4 2-14 2c-11 0-12 0-13-2zM621 187c-1-3-1-116 0-119c1-1 2-2 3-1c1 0 6 0 11 0c7 0 11 0 12 1c1 1 1 3 1 8c0 5 0 6 2 6c0 0 1-1 1-1c0-3 8-10 13-12c1 0 2-1 2-2c1-1 2-1 5-1c3 0 7-1 9-1c3-2 5-2 8 0c2 0 6 1 9 1c2 0 4 1 5 1c1 1 2 2 3 2c1 0 5 3 9 8c7 7 9 8 9 6c0-2 13-14 16-14c1 0 2-1 3-2c1 0 3-1 5-1c2 0 6-1 8-1c3-2 5-2 9 0c2 0 6 1 8 1c2 0 4 1 5 2c1 0 2 1 3 1c2 0 15 13 15 15c0 0 1 1 1 2c1 1 2 2 2 4c0 2 1 3 2 4c1 1 1 8 1 48l0 47-13 0c-11 0-14-1-15-2c-2-1-2-4-2-41c0-33 0-40-1-41c-1-1-2-2-2-3c0-1-2-4-5-6c-4-3-5-3-13-3c-7 0-9 0-10 1c-1 1-2 2-2 2c-1 0-4 2-7 5l-5 6 0 40l0 41-2 0c-1 1-8 1-15 1l-13-1 0-39c0-34 0-40-2-41c0-1-1-2-1-3c0-3-5-9-6-9c-1 0-2-1-3-2c-1-1-3-1-10-1l-10 0-5 5c-2 2-6 6-7 8l-3 4 0 38c0 27 0 38-1 39c-1 1-4 2-14 2c-11 0-12 0-13-2zM543 160c1 0 2-1 3-1c3 0 15-13 15-16c0-1 1-2 1-2c2-1 2-3 2-13c0-9 0-12-2-13c0-1-1-2-1-3c0-3-13-16-15-16c-1 0-2-1-3-2c-1-1-4-1-12-1c-8 0-11 0-12 1c-1 1-2 2-3 2c-3 0-15 13-15 15c0 1-1 2-1 3c-2 1-2 4-2 14c0 9 0 12 2 13c0 1 1 2 1 3c0 3 12 15 15 15c1 0 2 1 3 1c0 2 2 2 11 2c9 0 12 0 13-2zM279 113c0-2 0-4-1-5c-1-1-2-2-2-3c0-2-7-9-9-9c-1 0-2-1-3-2c-3-2-25-2-28 0c-1 1-2 2-3 2c-1 0-11 11-11 13c0 1-1 2-2 2c0 1-1 2-1 2c0 4 2 4 31 4l28-1 1-3zM915 114c0-1-1-2-1-3c-1-1-2-2-2-3c0-2-9-11-14-14c-4-2-25-2-28 0c-1 1-2 2-2 2c-2 0-10 7-10 9c0 1-1 2-2 3c-1 1-2 7 0 8c0 1 13 1 29 1c29 0 30-1 30-3z"/></svg>
