<svg xmlns="http://www.w3.org/2000/svg" viewBox="0 0 240.1 107.6">
  <style>
    path {
      fill: black;
    }
    
  </style>
  <path d="M238.9 0c-15.5 0-28.399 5.2-38.699 15.5-1.3 1.3-2.501 2.6-3.601 4 0 0-.1.2-.3.4-3.4 4.4-39.499 51-42.099 54.3-3.5 4.4-8.901 8.9-12.701 11.3-5.6 3.6-8.699 5.4-19.299 5.4s-19.3-3.5-26-10.7C89.501 73.1 86.1 64.3 86.1 53.8c0-3.1.3-6.1.9-8.9L69.5 66.6c2.2 9.7 6.8 18.1 14 25.4 10.2 10.3 23.101 15.5 38.701 15.5 10.5 0 19.9-2.4 28.2-7.4 6.3-3.7 11.6-8.5 15.8-14.3l-.101-.3 19.2-24 25.2-31.6c.2-.3.501-.5.701-.8.6-.6 1.1-1.3 1.7-1.9 6.7-7.1 15.4-10.7 26-10.7H240V0ZM122.201.1C106.701.1 93.8 5.3 83.5 15.6c-1.9 2-5.2 6-5.2 6S38 70.8 35.3 74.3c-3.5 4.3-8.9 8.9-12.7 11.3-3.1 2-6.399 3.5-9.899 4.5-3.5.7-7.1 1.1-10.9 1.1H0v16.3h3.201c10.5 0 19.9-2.4 28.2-7.4 6.3-3.7 11.6-8.5 15.8-14.3L68.5 60.6v-.2l26.1-31.3c.5-.6 1.001-1.3 1.601-1.9 6.7-7.1 15.4-10.7 26-10.7 7.3 0 13.699 1.8 19.299 5.4 5.6 3.6 9.9 8.4 12.9 14.5l15.5-8.7c-4.7-8.5-11.2-15.2-19.5-20.2-8.3-4.9-12.699-7.4-28.199-7.4ZM0 .3V16h1.1c8 0 14.9 2.4 20.8 7.3S31.401 34.7 32.701 43v14.8l11.399-.3 6.7-8.4c-.5-14.5-5.2-26.2-14-34.9C27.4 4.9 15.7.3 1.8.3Zm203.701 45.2L186.6 67.7c2.2 9.2 6.7 17.4 13.7 24.4 10.2 10.3 23.1 15.5 38.7 15.5h1.1V91H239c-10.6 0-19.3-3.5-26-10.7-6.7-7.1-10.1-15.9-10.1-26.4 0-3 .301-5.7.801-8.4z"/>
</svg>
